<?xml version="1.0" encoding="UTF-8" standalone="no" ?>
<svg xmlns="http://www.w3.org/2000/svg" xmlns:xlink="http://www.w3.org/1999/xlink" version="1.1" width="1080" height="600" viewBox="0 230 1080 600" xml:space="preserve">
  <desc>Created with Fabric.js 5.2.4</desc>
  <defs></defs>
  <g transform="matrix(2.51 0 0 2.51 540 540)">
    <g style="" vector-effect="non-scaling-stroke">
      <g transform="matrix(1.25 0 0 1.25 -171.64 -6.97)" id="path328741">
        <path style="stroke: rgb(82,82,82); stroke-width: 0; stroke-dasharray: none; stroke-linecap: butt; stroke-dashoffset: 0; stroke-linejoin: miter; stroke-miterlimit: 2; fill: rgb(82,82,82); fill-rule: nonzero; opacity: 1;" vector-effect="non-scaling-stroke" transform="translate(-375.07, 25.2)" d="M 375.06669 -51.12 C 361.17069 -51.12 349.86669 -39.528 349.86669 -25.199999999999996 C 349.86669 -10.871999999999996 361.17069 0.720000000000006 375.06669 0.720000000000006 C 388.96269 0.720000000000006 400.26669 -10.871999999999995 400.26669 -25.199999999999996 C 400.26669 -39.52799999999999 388.96269 -51.12 375.06669 -51.12 z M 355.84269 -25.199999999999996 C 355.84269 -36.215999999999994 364.48269 -45.14399999999999 375.06669 -45.14399999999999 C 385.65069 -45.14399999999999 394.29069 -36.215999999999994 394.29069 -25.199999999999992 C 394.29069 -14.183999999999992 385.65069 -5.255999999999993 375.06669 -5.255999999999993 C 364.48269 -5.255999999999993 355.84269 -14.183999999999994 355.84269 -25.199999999999992 z" stroke-linecap="round" />
      </g>
      <g transform="matrix(1.25 0 0 1.25 -106.48 7.69)" id="path328743">
        <path style="stroke: rgb(92,92,92); stroke-width: 0; stroke-dasharray: none; stroke-linecap: butt; stroke-dashoffset: 0; stroke-linejoin: miter; stroke-miterlimit: 2; fill: rgb(92,92,92); fill-rule: nonzero; opacity: 1;" vector-effect="non-scaling-stroke" transform="translate(-427.19, 13.46)" d="M 427.19244 -38.808 C 416.60844 -38.808 407.96844 -29.951999999999998 407.96844 -19.008 L 407.96844 8.856 C 407.96844 10.512 409.33644 11.879999999999999 410.92044 11.879999999999999 C 412.57644 11.879999999999999 413.94444 10.511999999999999 413.94444 8.855999999999998 L 413.94444 -4.752 C 417.40044 -1.3679999999999999 422.08044 0.7200000000000006 427.19244 0.7200000000000006 C 437.77644 0.7200000000000006 446.41643999999997 -8.136 446.41643999999997 -19.008000000000003 C 446.41643999999997 -29.952000000000005 437.77644 -38.80800000000001 427.19244 -38.80800000000001 z M 413.94444 -19.008 C 413.94444 -26.64 419.92044 -32.832 427.19244 -32.832 C 434.53643999999997 -32.832 440.44043999999997 -26.64 440.44043999999997 -19.008000000000003 C 440.44043999999997 -11.448000000000004 434.53643999999997 -5.256000000000002 427.19244 -5.256000000000002 C 419.92044 -5.256000000000002 413.94444 -11.448000000000002 413.94444 -19.008000000000003 z" stroke-linecap="round" />
      </g>
      <g transform="matrix(1.25 0 0 1.25 -50.08 0.72)" id="path328745">
        <path style="stroke: rgb(102,102,102); stroke-width: 0; stroke-dasharray: none; stroke-linecap: butt; stroke-dashoffset: 0; stroke-linejoin: miter; stroke-miterlimit: 2; fill: rgb(102,102,102); fill-rule: nonzero; opacity: 1;" vector-effect="non-scaling-stroke" transform="translate(-472.31, 19.04)" d="M 491.38944 -21.672 C 490.16544 -31.32 482.10143999999997 -38.808 472.30944 -38.808 C 461.72544 -38.808 453.08544 -29.951999999999998 453.08544 -19.008 C 453.08544 -8.136 461.72544 0.7200000000000024 472.30944 0.7200000000000024 C 478.28544 0.7200000000000024 483.61343999999997 -2.015999999999998 487.06944 -6.407999999999998 C 488.65344 -8.351999999999997 487.21344 -11.231999999999998 484.76544 -11.231999999999998 C 483.82944000000003 -11.231999999999998 482.96544 -10.799999999999997 482.38944000000004 -10.079999999999998 C 480.01344000000006 -7.127999999999998 476.34144000000003 -5.2559999999999985 472.30944000000005 -5.2559999999999985 C 467.77344000000005 -5.2559999999999985 463.81344000000007 -7.559999999999999 461.36544000000004 -11.232 C 460.35744000000005 -12.744 459.63744 -14.543999999999999 459.27744 -16.416 L 488.94144 -16.416 C 490.38144 -16.416 491.53344 -17.568 491.53344 -19.008 C 491.53344 -19.944 491.46144 -20.808 491.38944 -21.672 z M 459.27743999999996 -21.672 C 460.50143999999995 -28.008000000000003 465.82944 -32.832 472.30943999999994 -32.832 C 478.78943999999996 -32.832 484.18943999999993 -28.008000000000003 485.3414399999999 -21.672 z" stroke-linecap="round" />
      </g>
      <g transform="matrix(1.25 0 0 1.25 4.28 0.27)" id="path328747">
        <path style="stroke: rgb(112,112,112); stroke-width: 0; stroke-dasharray: none; stroke-linecap: butt; stroke-dashoffset: 0; stroke-linejoin: miter; stroke-miterlimit: 2; fill: rgb(112,112,112); fill-rule: nonzero; opacity: 1;" vector-effect="non-scaling-stroke" transform="translate(-515.8, 19.4)" d="M 515.80419 -38.808 C 506.51618999999994 -38.808 498.95618999999994 -31.032 498.95618999999994 -21.528 L 498.95618999999994 -2.951999999999998 C 498.95618999999994 -1.367999999999998 500.32418999999993 1.7763568394002505e-15 501.90818999999993 1.7763568394002505e-15 C 503.56418999999994 1.7763568394002505e-15 504.93218999999993 -1.3679999999999983 504.93218999999993 -2.951999999999998 L 504.93218999999993 -21.528 C 504.93218999999993 -27.791999999999998 509.82818999999995 -32.832 515.80419 -32.832 C 521.78019 -32.832 526.6761899999999 -27.792 526.6761899999999 -21.528 L 526.6761899999999 -2.951999999999998 C 526.6761899999999 -1.367999999999998 527.97219 1.7763568394002505e-15 529.6281899999999 1.7763568394002505e-15 C 531.2841899999999 1.7763568394002505e-15 532.6521899999999 -1.3679999999999983 532.6521899999999 -2.951999999999998 L 532.6521899999999 -21.528 C 532.6521899999999 -31.031999999999996 525.09219 -38.808 515.80419 -38.808 z" stroke-linecap="round" />
      </g>
      <g transform="matrix(1.25 0 0 1.25 66.46 -6.97)" id="path328749">
        <path style="stroke: rgb(122,122,122); stroke-width: 0; stroke-dasharray: none; stroke-linecap: butt; stroke-dashoffset: 0; stroke-linejoin: miter; stroke-miterlimit: 2; fill: rgb(122,122,122); fill-rule: nonzero; opacity: 1;" vector-effect="non-scaling-stroke" transform="translate(-565.54, 25.2)" d="M 587.64556 -26.136 C 586.0615600000001 -26.136 584.76556 -24.983999999999998 584.69356 -23.4 C 584.54956 -22.247999999999998 584.40556 -20.951999999999998 584.26156 -20.232 C 582.1015600000001 -11.591999999999999 574.54156 -5.183999999999999 565.61356 -5.183999999999999 C 555.0295600000001 -5.183999999999999 546.38956 -14.184 546.38956 -25.199999999999996 C 546.38956 -36.215999999999994 555.02956 -45.14399999999999 565.61356 -45.14399999999999 C 572.66956 -45.14399999999999 578.78956 -41.25599999999999 582.17356 -35.35199999999999 C 582.67756 -34.41599999999999 583.6855599999999 -33.83999999999999 584.7655599999999 -33.83999999999999 C 587.0695599999999 -33.83999999999999 588.50956 -36.28799999999999 587.3575599999999 -38.30399999999999 C 582.9655599999999 -46.00799999999999 574.9015599999999 -51.11999999999999 565.6135599999999 -51.11999999999999 C 551.7175599999999 -51.11999999999999 540.4135599999998 -39.52799999999999 540.4135599999998 -25.19999999999999 C 540.4135599999998 -10.87199999999999 551.7175599999998 0.7200000000000131 565.6135599999999 0.7200000000000131 C 577.8535599999999 0.7200000000000131 588.07756 -8.279999999999987 590.3095599999999 -20.23199999999999 C 590.4535599999999 -20.87999999999999 590.5975599999999 -21.887999999999987 590.6695599999999 -22.96799999999999 C 590.7415599999999 -24.69599999999999 589.3735599999999 -26.13599999999999 587.6455599999999 -26.13599999999999 z M 563.66956 -23.183999999999997 C 563.66956 -21.528 565.0375600000001 -20.232 566.69356 -20.232 L 576.5575600000001 -20.232 C 578.21356 -20.232 579.5095600000001 -21.528 579.5095600000001 -23.183999999999997 C 579.5095600000001 -24.839999999999996 578.21356 -26.135999999999996 576.5575600000001 -26.135999999999996 L 566.69356 -26.135999999999996 C 565.0375600000001 -26.135999999999996 563.66956 -24.839999999999996 563.66956 -23.183999999999997 z" stroke-linecap="round" />
      </g>
      <g transform="matrix(1.25 0 0 1.25 111.79 -6.98)" id="path328751">
        <path style="stroke: rgb(132,132,132); stroke-width: 0; stroke-dasharray: none; stroke-linecap: butt; stroke-dashoffset: 0; stroke-linejoin: miter; stroke-miterlimit: 2; fill: rgb(132,132,132); fill-rule: nonzero; opacity: 1;" vector-effect="non-scaling-stroke" transform="translate(-601.8, 25.2)" d="M 601.76881 -50.4 C 600.1848100000001 -50.4 598.81681 -49.032 598.81681 -47.448 L 598.81681 -2.951999999999998 C 598.81681 -1.367999999999998 600.1848100000001 1.7763568394002505e-15 601.76881 1.7763568394002505e-15 C 603.42481 1.7763568394002505e-15 604.79281 -1.3679999999999983 604.79281 -2.951999999999998 L 604.79281 -47.448 C 604.79281 -49.032000000000004 603.42481 -50.4 601.76881 -50.4 z" stroke-linecap="round" />
      </g>
      <g transform="matrix(1.25 0 0 1.25 150.13 0.72)" id="path328753">
        <path style="stroke: rgb(142,142,142); stroke-width: 0; stroke-dasharray: none; stroke-linecap: butt; stroke-dashoffset: 0; stroke-linejoin: miter; stroke-miterlimit: 2; fill: rgb(142,142,142); fill-rule: nonzero; opacity: 1;" vector-effect="non-scaling-stroke" transform="translate(-632.48, 19.04)" d="M 632.48131 -38.808 C 621.8973100000001 -38.808 613.25731 -29.951999999999998 613.25731 -19.008 C 613.25731 -8.136 621.89731 0.7200000000000024 632.48131 0.7200000000000024 C 643.06531 0.7200000000000024 651.70531 -8.135999999999997 651.70531 -19.008 C 651.70531 -29.951999999999998 643.0653100000001 -38.808 632.48131 -38.808 z M 619.23331 -19.008 C 619.23331 -26.64 625.20931 -32.832 632.48131 -32.832 C 639.8253100000001 -32.832 645.72931 -26.64 645.72931 -19.008000000000003 C 645.72931 -11.448000000000004 639.8253100000001 -5.256000000000002 632.48131 -5.256000000000002 C 625.20931 -5.256000000000002 619.23331 -11.448000000000002 619.23331 -19.008000000000003 z" stroke-linecap="round" />
      </g>
      <g transform="matrix(1.25 0 0 1.25 193.69 -6.53)" id="path328755">
        <path style="stroke: rgb(152,152,152); stroke-width: 0; stroke-dasharray: none; stroke-linecap: butt; stroke-dashoffset: 0; stroke-linejoin: miter; stroke-miterlimit: 2; fill: rgb(152,152,152); fill-rule: nonzero; opacity: 1;" vector-effect="non-scaling-stroke" transform="translate(-667.33, 24.84)" d="M 672.94194 -5.328 C 668.83794 -6.264 665.74194 -10.08 665.74194 -14.687999999999999 L 665.74194 -32.471999999999994 L 672.29394 -32.471999999999994 C 673.7339400000001 -32.471999999999994 674.88594 -33.623999999999995 674.88594 -35.06399999999999 C 674.88594 -36.50399999999999 673.73394 -37.727999999999994 672.29394 -37.727999999999994 L 665.74194 -37.727999999999994 L 665.74194 -47.663999999999994 C 665.74194 -49.10399999999999 664.58994 -50.25599999999999 663.14994 -50.25599999999999 L 662.35794 -50.25599999999999 C 660.9179399999999 -50.25599999999999 659.76594 -49.10399999999999 659.76594 -47.663999999999994 L 659.76594 -14.687999999999995 C 659.76594 -7.199999999999995 664.87794 -0.9359999999999946 671.78994 0.5040000000000049 C 673.37394 0.8640000000000049 674.88594 -0.3599999999999951 674.88594 -2.015999999999995 L 674.88594 -2.8079999999999954 C 674.88594 -3.9599999999999955 674.09394 -5.039999999999996 672.94194 -5.327999999999996 z" stroke-linecap="round" />
      </g>
    </g>
  </g>
</svg>
