<svg version="1.0" xmlns="http://www.w3.org/2000/svg" width="200.000000pt" height="200.000000pt" viewBox="0 0 200.000000 200.000000" preserveAspectRatio="xMidYMid meet">
  <g transform="translate(0.000000,200.000000) scale(0.100000,-0.100000)" stroke="none">
    <path d="M515 1806 c-111 -36 -190 -104 -239 -206 l-31 -65 0 -535 0 -535 31 -65 c39 -83 101 -145 184 -184 l65 -31 475 0 475 0 61 28 c77 36 154 113 191 192 l28 60 0 535 0 535 -31 65 c-40 83 -102 145 -184 184 l-65 31 -460 2 c-352 2 -469 -1 -500 -11z m995 -74 c75 -37 117 -78 152 -150 l33 -67 0 -515 0 -515 -33 -67 c-35 -72 -77 -113 -152 -150 -45 -23 -47 -23 -510 -23 -463 0 -465 0 -510 23 -75 37 -117 78 -152 150 l-33 67 0 515 c0 424 3 521 14 550 39 96 121 172 211 197 33 9 161 12 490 10 440 -2 446 -2 490 -25z"/>
    <path d="M727 1594 c-4 -4 -7 -38 -7 -76 l0 -68 -114 0 c-118 0 -146 -9 -132 -45 4 -13 35 -15 192 -15 l186 0 -4 -117 c-4 -128 -26 -198 -74 -243 l-23 -23 -21 24 c-34 39 -61 106 -71 177 -10 71 -22 87 -52 70 -17 -9 -18 -17 -12 -66 9 -78 39 -159 74 -203 l30 -37 -31 -6 c-17 -3 -45 -6 -63 -6 -37 0 -60 -22 -51 -46 5 -14 18 -16 74 -12 37 3 81 12 97 21 27 14 33 14 60 0 16 -9 59 -18 96 -21 56 -4 67 -2 73 13 9 26 -12 45 -49 45 -18 0 -47 3 -64 6 l-31 6 30 42c48 64 70 151 70 272 l0 104 59 0 c45 0 60 4 65 16 14 36 -11 44 -135 44 l-118 0 -3 73 c-3 64 -5 72 -23 75 -12 2 -24 0 -28 -4z"/>
    <path d="M1104 1585 c-15 -38 2 -45 102 -45 164 0 194 -28 194 -180 0 -93 10 -130 34 -130 18 0 138 130 133 144 -2 5 -11 14 -20 20 -13 8 -24 3 -53 -24 l-36 -35 7 41 c13 83 -38 180 -112 210 -48 20 -242 19 -249 -1z"/>
    <path d="M 1295 1078 C 1269 1006 1113 423 1117 413 C 1120 406 1133 400 1145 400 C 1165 400 1171 409 1184 455 L 1200 509 L 1273 512 C 1342 515 1345 516 1345 540 C 1345 564 1342 565 1283 568 C 1248 570 1220 573 1220 577 C 1220 589 1320 943 1325 948 C 1328 951 1325.81 948.748 1330 935 C 1335.831 915.869 1455 458 1470 423 C 1481 398 1517 392 1526 413 C 1530 425 1372 1015 1350 1068 C 1340 1092 1302 1098 1295 1078 Z"/>
    <path d="M491 704 c-63 -67 -68 -79 -38 -98 13 -8 23 -4 49 21 l33 32 0 -62 c0 -73 20 -114 78 -161 39 -31 39 -31 160 -31 l122 0 0 25 c0 25 -1 25 -110 30 -164 8 -188 31 -186 183 2 88 -9 127 -33 127 -8 0 -41 -30 -75 -66z"/>
  </g>
</svg>
